External Loads File
version=1
nRows=31
nColumns=13
Range=5.000000e-03-10 seconds
endheader
time 	forceRightX 	forceRightY 	forceRightZ 	pointRightX 	pointRightY 	pointRightZ 	forceLeftX 	forceLeftY 	forceLeftZ 	pointLeftX 	pointLeftY 	pointLeftZ 		
0.005000 26.689376 92.477791 -0.000000 0.455140 0.414237 -0.195562 20.145921 120.782368 -0.000000 0.181898 0.245346 -0.441036
0.010000 27.046625 91.908499 -0.000000 0.455019 0.414378 -0.195572 18.245608 118.204338 -0.000000 0.182122 0.245145 -0.441062
0.015000 27.318517 91.316020 -0.000000 0.454950 0.414500 -0.195576 16.544816 115.586705 -0.000000 0.182288 0.245009 -0.441077
0.020000 27.442502 90.694627 -0.000000 0.454947 0.414577 -0.195588 15.147209 113.018844 -0.000000 0.182336 0.244825 -0.441012
0.025000 27.273760 90.067258 -0.000000 0.454821 0.415031 -0.195442 13.985396 110.573217 -0.000000 0.182401 0.244815 -0.440923
0.030000 27.004185 89.370345 -0.000000 0.454889 0.415070 -0.195428 13.323028 108.249355 -0.000000 0.182434 0.244839 -0.440897
0.035000 26.604505 88.627249 -0.000000 0.455001 0.415053 -0.195425 13.057726 106.086917 -0.000000 0.182418 0.245095 -0.440876
0.040000 26.036258 87.880023 -0.000000 0.455112 0.415013 -0.195409 12.978883 104.143733 -0.000000 0.182376 0.245165 -0.440859
0.045000 25.417042 87.125262 -0.000000 0.455232 0.414970 -0.195379 13.025723 102.491381 -0.000000 0.182305 0.245091 -0.440868
0.050000 24.910996 86.330629 -0.000000 0.455360 0.414913 -0.195328 13.258201 101.222898 -0.000000 0.182220 0.245222 -0.440874
0.055000 24.468235 85.517448 -0.000000 0.455468 0.414859 -0.195315 13.590336 100.457815 -0.000000 0.182088 0.245317 -0.440864
0.060000 24.063638 84.719057 -0.000000 0.455580 0.414817 -0.195325 14.062760 100.293467 -0.000000 0.181946 0.245462 -0.440852
0.065000 23.641218 84.007735 -0.000000 0.455696 0.414742 -0.195326 14.750328 100.803761 -0.000000 0.181751 0.245620 -0.440846
0.070000 23.123495 83.479379 -0.000000 0.455825 0.414665 -0.195328 15.696875 102.006708 -0.000000 0.181542 0.245752 -0.440826
0.075000 22.504320 83.217015 -0.000000 0.455946 0.414554 -0.195331 16.949656 103.838234 -0.000000 0.181306 0.245932 -0.440819
0.080000 21.787748 83.297659 -0.000000 0.456070 0.414449 -0.195304 18.454460 106.185235 -0.000000 0.180994 0.246097 -0.440842
0.085000 21.038019 83.752654 -0.000000 0.456174 0.414295 -0.195307 20.112124 108.886534 -0.000000 0.180754 0.246298 -0.440808
0.090000 20.305530 84.563642 -0.000000 0.456249 0.414196 -0.195303 21.717613 111.756686 -0.000000 0.180514 0.246421 -0.440765
0.095000 19.681172 85.650100 -0.000000 0.456267 0.414164 -0.195318 23.100603 114.591642 -0.000000 0.180317 0.246502 -0.440786
0.100000 19.236704 86.901765 -0.000000 0.456232 0.414157 -0.195315 24.103414 117.180301 -0.000000 0.180217 0.246534 -0.440773
0.105000 19.012469 88.204442 -0.000000 0.456173 0.414155 -0.195305 24.594482 119.314374 -0.000000 0.180198 0.246502 -0.440759
0.110000 19.004492 89.461807 -0.000000 0.456058 0.414230 -0.195311 24.487278 120.844684 -0.000000 0.180261 0.246446 -0.440736
0.115000 19.195532 90.596436 -0.000000 0.455925 0.414387 -0.195350 23.781322 121.702641 -0.000000 0.180415 0.246301 -0.440736
0.120000 19.604870 91.545585 -0.000000 0.455730 0.414513 -0.195346 22.580894 121.865901 -0.000000 0.180649 0.246104 -0.440752
0.125000 20.196023 92.282454 -0.000000 0.455508 0.414695 -0.195333 20.963450 121.374048 -0.000000 0.180900 0.245817 -0.440723
0.130000 20.961962 92.790449 -0.000000 0.455288 0.414894 -0.195337 19.107126 120.307511 -0.000000 0.181186 0.245510 -0.440742
0.135000 21.877286 93.068448 -0.000000 0.455081 0.415074 -0.195394 17.197559 118.784599 -0.000000 0.181520 0.245268 -0.440746
0.140000 22.855487 93.140146 -0.000000 0.454884 0.415261 -0.195414 15.353496 116.959193 -0.000000 0.181807 0.245002 -0.440759
0.145000 23.811802 93.030700 -0.000000 0.454724 0.415460 -0.195421 13.707148 114.989246 -0.000000 0.182100 0.244740 -0.440789
0.150000 24.688436 92.749286 -0.000000 0.454608 0.415597 -0.195430 12.410273 112.997435 -0.000000 0.182349 0.244556 -0.440786
0.155000 25.358517 92.322248 -0.000000 0.454508 0.415712 -0.195406 11.490813 111.076929 -0.000000 0.182546 0.244393 -0.440808
